<svg xmlns="http://www.w3.org/2000/svg" viewBox="0 0 800 450" role="img" aria-labelledby="t-scholargrid-symmetric-academic-lms-platform d-scholargrid-symmetric-academic-lms-platform">
<title id="t-scholargrid-symmetric-academic-lms-platform">ScholarGrid LMS Platform — portfolio visual</title>
<desc id="d-scholargrid-symmetric-academic-lms-platform">Illustrative portfolio artwork for ScholarGrid LMS Platform (EdTech / Education). Stylised mockup, not a live screenshot.</desc>
<defs>
<linearGradient id="bg-scholargrid-symmetric-academic-lms-platform" x1="0" y1="0" x2="1" y2="1">
<stop offset="0" stop-color="#0c2340"/><stop offset="1" stop-color="#0369a1"/>
</linearGradient>
<linearGradient id="acc-scholargrid-symmetric-academic-lms-platform" x1="0" y1="0" x2="1" y2="0">
<stop offset="0" stop-color="#38bdf8"/><stop offset="1" stop-color="#38bdf8" stop-opacity="0.55"/>
</linearGradient>
</defs>
<rect width="800" height="450" fill="url(#bg-scholargrid-symmetric-academic-lms-platform)"/>
<circle cx="700" cy="80" r="150" fill="#ffffff" opacity="0.06"/>
<circle cx="120" cy="420" r="120" fill="#ffffff" opacity="0.05"/>
<text x="740" y="400" font-family="Inter, system-ui, -apple-system, 'Segoe UI', sans-serif" font-size="150" font-weight="800" fill="#ffffff" opacity="0.10" text-anchor="middle">S</text>
<rect x="0" y="0" width="800" height="54" fill="rgba(10,12,24,0.55)"/>
<circle cx="28" cy="27" r="6" fill="#ff5f57"/><circle cx="48" cy="27" r="6" fill="#febc2e"/><circle cx="68" cy="27" r="6" fill="#28c840"/>
<rect x="96" y="14" width="330" height="26" rx="13" fill="rgba(255,255,255,0.14)" stroke="rgba(255,255,255,0.25)"/>
<text x="112" y="31" font-family="Inter, system-ui, -apple-system, 'Segoe UI', sans-serif" font-size="12" fill="#ffffff" opacity="0.9">scholargrid • courses</text>
<rect x="700" y="14" width="72" height="26" rx="13" fill="#38bdf8"/>
<text x="736" y="31" font-family="Inter, system-ui, -apple-system, 'Segoe UI', sans-serif" font-size="11" font-weight="800" fill="#ffffff" text-anchor="middle">GROWTH</text>
<text x="48" y="108" font-family="Inter, system-ui, -apple-system, 'Segoe UI', sans-serif" font-size="12" font-weight="800" letter-spacing="2" fill="#38bdf8">EDUCATION PLATFORM</text>
<text x="48" y="150" font-family="Inter, system-ui, -apple-system, 'Segoe UI', sans-serif" font-size="30" font-weight="800" fill="#ffffff">ScholarGrid LMS</text><text x="48" y="184" font-family="Inter, system-ui, -apple-system, 'Segoe UI', sans-serif" font-size="30" font-weight="800" fill="#ffffff">Platform</text>
<text x="48" y="226" font-family="Inter, system-ui, -apple-system, 'Segoe UI', sans-serif" font-size="12" fill="#ffffff" opacity="0.75">EdTech / Education</text>
<g><rect x="48" y="240" width="108" height="26" rx="13" fill="rgba(255,255,255,0.16)" stroke="rgba(255,255,255,0.35)"/><text x="102" y="257" font-family="Inter, system-ui, -apple-system, 'Segoe UI', sans-serif" font-size="11" font-weight="700" fill="#ffffff" text-anchor="middle">Django</text></g><g><rect x="166" y="240" width="108" height="26" rx="13" fill="rgba(255,255,255,0.16)" stroke="rgba(255,255,255,0.35)"/><text x="220" y="257" font-family="Inter, system-ui, -apple-system, 'Segoe UI', sans-serif" font-size="11" font-weight="700" fill="#ffffff" text-anchor="middle">PostgreSQL</text></g><g><rect x="284" y="240" width="108" height="26" rx="13" fill="rgba(255,255,255,0.16)" stroke="rgba(255,255,255,0.35)"/><text x="338" y="257" font-family="Inter, system-ui, -apple-system, 'Segoe UI', sans-serif" font-size="11" font-weight="700" fill="#ffffff" text-anchor="middle">Celery</text></g>
<g><rect x="48" y="292" width="170" height="34" rx="10" fill="#38bdf8"/>
<text x="133" y="314" font-family="Inter, system-ui, -apple-system, 'Segoe UI', sans-serif" font-size="12" font-weight="800" fill="#ffffff" text-anchor="middle">VIEW CASE STUDY</text></g>
<g>
<rect x="420" y="90" width="332" height="300" rx="16" fill="rgba(10,12,24,0.45)" stroke="rgba(255,255,255,0.3)"/>
<rect x="420" y="90" width="88" height="300" rx="16" fill="rgba(255,255,255,0.10)"/>
<circle cx="444" cy="116" r="10" fill="#38bdf8"/>
<rect x="436" y="136" width="56" height="8" rx="4" fill="#fff" opacity="0.5"/>
<rect x="436" y="150" width="56" height="8" rx="4" fill="#fff" opacity="0.3"/>
<rect x="436" y="164" width="56" height="8" rx="4" fill="#fff" opacity="0.3"/>
<g><rect x="440" y="110" width="90" height="64" rx="10" fill="rgba(255,255,255,0.94)"/><text x="450" y="132" font-family="Inter, system-ui, -apple-system, 'Segoe UI', sans-serif" font-size="10" font-weight="700" fill="#475569">Courses</text><rect x="450" y="140" width="60" height="10" rx="5" fill="#38bdf8" opacity="0.8"/><rect x="450" y="154" width="40" height="6" rx="3" fill="#0f172a" opacity="0.25"/></g><g><rect x="540" y="110" width="90" height="64" rx="10" fill="rgba(255,255,255,0.94)"/><text x="550" y="132" font-family="Inter, system-ui, -apple-system, 'Segoe UI', sans-serif" font-size="10" font-weight="700" fill="#475569">Progress</text><rect x="550" y="140" width="60" height="10" rx="5" fill="#38bdf8" opacity="0.8"/><rect x="550" y="154" width="40" height="6" rx="3" fill="#0f172a" opacity="0.25"/></g><g><rect x="640" y="110" width="90" height="64" rx="10" fill="rgba(255,255,255,0.94)"/><text x="650" y="132" font-family="Inter, system-ui, -apple-system, 'Segoe UI', sans-serif" font-size="10" font-weight="700" fill="#475569">Live</text><rect x="650" y="140" width="60" height="10" rx="5" fill="#38bdf8" opacity="0.8"/><rect x="650" y="154" width="40" height="6" rx="3" fill="#0f172a" opacity="0.25"/></g>
<rect x="432" y="186" width="308" height="150" rx="10" fill="rgba(255,255,255,0.10)" stroke="rgba(255,255,255,0.2)"/>
<rect x="452" y="200" width="220" height="12" rx="6" fill="rgba(255,255,255,0.75)"/><circle cx="440" cy="206" r="5" fill="#38bdf8" opacity="0.9"/><rect x="452" y="226" width="190" height="12" rx="6" fill="rgba(255,255,255,0.75)"/><circle cx="440" cy="232" r="5" fill="#38bdf8" opacity="0.9"/><rect x="452" y="252" width="160" height="12" rx="6" fill="rgba(255,255,255,0.75)"/><circle cx="440" cy="258" r="5" fill="#38bdf8" opacity="0.9"/><rect x="452" y="278" width="130" height="12" rx="6" fill="rgba(255,255,255,0.75)"/><circle cx="440" cy="284" r="5" fill="#38bdf8" opacity="0.9"/><rect x="452" y="304" width="100" height="12" rx="6" fill="rgba(255,255,255,0.75)"/><circle cx="440" cy="310" r="5" fill="#38bdf8" opacity="0.9"/>
<rect x="560" y="260" width="18" height="40" rx="4" fill="#38bdf8" opacity="0.5"/><rect x="588" y="236" width="18" height="64" rx="4" fill="#38bdf8" opacity="0.6"/><rect x="616" y="248" width="18" height="52" rx="4" fill="#38bdf8" opacity="0.7"/><rect x="644" y="222" width="18" height="78" rx="4" fill="#38bdf8" opacity="0.8"/><rect x="672" y="240" width="18" height="60" rx="4" fill="#38bdf8" opacity="0.9"/>
<text x="452" y="356" font-family="Inter, system-ui, -apple-system, 'Segoe UI', sans-serif" font-size="10" fill="#fff" opacity="0.7">Abstract pipeline shapes — no live data shown.</text>
</g>
<g><rect x="0" y="418" width="800" height="32" fill="rgba(10,12,24,0.55)"/>
<text x="48" y="438" font-family="Inter, system-ui, -apple-system, 'Segoe UI', sans-serif" font-size="11" fill="#ffffff" opacity="0.8">Illustrative portfolio visual — stylised mockup, not a live screenshot.</text>
<text x="752" y="438" font-family="Inter, system-ui, -apple-system, 'Segoe UI', sans-serif" font-size="11" fill="#ffffff" opacity="0.8" text-anchor="end">800 × 450 SVG</text></g>
</svg>